<?xml version="1.0" encoding="utf-8"?>
<!-- Generator: Adobe Illustrator 24.0.2, SVG Export Plug-In . SVG Version: 6.00 Build 0)  -->
<svg version="1.1" id="Capa_1" xmlns="http://www.w3.org/2000/svg" xmlns:xlink="http://www.w3.org/1999/xlink" x="0px" y="0px"
	 viewBox="0 0 50 50" style="enable-background:new 0 0 50 50;" xml:space="preserve">
<style type="text/css">
	.st0{fill:#5B42F3;}
	.st1{fill:#2E3192;}
	.st2{fill:#FFFFFF;}
</style>
<g>
	<g>
		<g>
			<path class="st0" d="M42,8c-4.3-4.3-10.3-7-17-7C11.7,1,1,11.7,1,25c0,6.6,2.7,12.6,7,17c4.3,4.3,10.3,7,17,7
				c13.3,0,24-10.7,24-24C49,18.4,46.3,12.4,42,8z"/>
			<path class="st1" d="M49,25c0,13.3-10.7,24-24,24c-6.6,0-12.6-2.7-17-7L42,8C46.3,12.4,49,18.4,49,25z"/>
		</g>
	</g>
	<g>
		<path class="st2" d="M28.1,7.5c0.6,0.2,1,0.6,1.3,1.1c0.7,1.1,1.7,1.6,3,1.7c1.2,0,1.8,0.6,1.9,1.9c0,1.3,0.6,2.3,1.7,3
			c0.1,0.1,0.2,0.1,0.3,0.2c0.8,0.6,1,1.3,0.6,2.2c-0.1,0.2-0.2,0.4-0.3,0.6c-0.4,0.9-0.4,1.8,0,2.7c0.1,0.2,0.2,0.4,0.3,0.6
			c0.4,0.9,0.2,1.6-0.6,2.2c-0.2,0.2-0.5,0.3-0.7,0.5c-0.8,0.6-1.2,1.5-1.2,2.4c0,0.2,0,0.5-0.1,0.7c-0.1,0.7-0.6,1.2-1.3,1.3
			c-0.4,0.1-0.8,0.1-1.2,0.1c-0.9,0.1-1.6,0.6-2.1,1.3c-0.1,0.2-0.3,0.4-0.4,0.6c-0.6,0.8-1.3,1-2.2,0.6c-0.3-0.1-0.6-0.3-0.9-0.4
			c-0.8-0.3-1.7-0.2-2.5,0.1c-0.2,0.1-0.4,0.2-0.6,0.3c-0.9,0.4-1.6,0.2-2.2-0.6c-0.2-0.3-0.4-0.6-0.6-0.8c-0.6-0.7-1.3-1-2.2-1.1
			c0,0-0.1,0-0.1,0c-1.6-0.1-2-0.6-2.1-2.1c-0.1-1.1-0.5-2-1.5-2.6c-0.2-0.1-0.3-0.2-0.5-0.3c-0.8-0.5-1-1.3-0.6-2.1
			c0.8-1.4,0.8-2.7,0-4c-0.4-0.8-0.2-1.6,0.6-2.1c0.2-0.1,0.3-0.2,0.5-0.3c0.9-0.6,1.4-1.5,1.5-2.6c0-0.2,0-0.4,0-0.6
			c0.2-1,0.7-1.5,1.7-1.5c0.8,0,1.5-0.1,2.1-0.6c0.4-0.3,0.7-0.6,0.9-1c0.3-0.5,0.7-0.9,1.3-1.1c0.2,0,0.4,0,0.6,0
			C23,7.7,23.4,7.9,23.8,8c0.7,0.3,1.3,0.4,2,0.1c0.6-0.2,1.1-0.5,1.7-0.7C27.7,7.5,27.9,7.5,28.1,7.5z M32,19.4c0-3.9-3.1-7-7-7
			c-3.9,0-7,3.1-7,7c0,3.9,3.1,7,7,7C28.9,26.4,32,23.3,32,19.4z"/>
		<path class="st2" d="M17.4,42.3c-0.5-0.7-1-1.4-1.4-2.1c-0.2-0.4-0.5-0.7-0.7-1.1c-0.1-0.2-0.3-0.3-0.6-0.3
			c-1.3,0.2-2.5,0.3-3.8,0.4c1.8-3.5,3.5-6.9,5.2-10.3c0.4,0.5,0.9,0.5,1.4,0.6c0.4,0,0.8,0.1,1.2,0.2c0.5,0.1,0.9,0.4,1.2,0.8
			c0.1,0.2,0.3,0.3,0.4,0.5c0.4,0.7,1,1.1,2,1.1C20.7,35.6,19.1,38.9,17.4,42.3z"/>
		<path class="st2" d="M27.6,32.3c1.3,0,2.2-0.6,2.8-1.6c0.3-0.5,0.7-0.8,1.3-0.9c0.6-0.2,1.3-0.3,1.9-0.4c0.1,0,0.3,0.1,0.3,0.2
			c1.5,2.9,3.1,5.7,4.6,8.6c0.2,0.3,0.4,0.7,0.6,1.1c-0.6-0.1-1.1-0.1-1.6-0.2c-0.8-0.1-1.5-0.2-2.3-0.3c-0.2,0-0.3,0.1-0.4,0.3
			c-0.4,1-0.8,2-1.2,3.1c0,0.1-0.1,0.2-0.2,0.4C31.5,39.1,29.6,35.7,27.6,32.3z"/>
		<path class="st2" d="M29.6,18.3c-0.6,0.7-1.3,1.4-2,2.1c-0.2,0.2-0.2,0.3-0.2,0.6c0.2,0.9,0.3,1.9,0.5,2.9c-0.1,0-0.2-0.1-0.3-0.1
			c-0.8-0.4-1.6-0.8-2.4-1.3c-0.2-0.1-0.3-0.1-0.5,0c-0.9,0.5-1.7,0.9-2.7,1.4c0.1-0.6,0.2-1.1,0.3-1.7c0.1-0.4,0.1-0.8,0.2-1.1
			c0.1-0.3,0-0.5-0.3-0.8c-0.6-0.7-1.3-1.3-1.9-2c0.5-0.1,1.2-0.2,1.8-0.3c0.4-0.1,0.7-0.1,1.1-0.2c0.1,0,0.3-0.1,0.3-0.3
			c0.5-0.9,0.9-1.8,1.4-2.7c0.1,0.2,0.1,0.3,0.2,0.4c0.4,0.8,0.8,1.5,1.1,2.3c0.1,0.2,0.2,0.3,0.4,0.3C27.7,18,28.7,18.2,29.6,18.3z
			"/>
	</g>
</g>
</svg>
