<?xml version="1.0" encoding="utf-8"?>
<!-- Generator: Adobe Illustrator 24.0.2, SVG Export Plug-In . SVG Version: 6.00 Build 0)  -->
<svg version="1.1" id="Capa_1" xmlns="http://www.w3.org/2000/svg" xmlns:xlink="http://www.w3.org/1999/xlink" x="0px" y="0px"
	 viewBox="0 0 50 50" style="enable-background:new 0 0 50 50;" xml:space="preserve">
<style type="text/css">
	.st0{fill:url(#SVGID_1_);}
	.st1{fill:#FFFFFF;}
</style>
<g>
	<linearGradient id="SVGID_1_" gradientUnits="userSpaceOnUse" x1="8.1486" y1="8.1486" x2="41.8514" y2="41.8514">
		<stop  offset="1.104800e-03" style="stop-color:#FFE185"/>
		<stop  offset="0.2094" style="stop-color:#FFBB36"/>
		<stop  offset="0.3765" style="stop-color:#FF5176"/>
		<stop  offset="0.5238" style="stop-color:#F63395"/>
		<stop  offset="0.7394" style="stop-color:#A436D2"/>
		<stop  offset="1" style="stop-color:#5F4EED"/>
	</linearGradient>
	<circle class="st0" cx="25" cy="25" r="23.8"/>
	<g>
		<path class="st1" d="M31.6,17c-0.8,0-1.5,0.7-1.5,1.5c0,0.8,0.7,1.5,1.5,1.5c0.8,0,1.5-0.7,1.5-1.5C33,17.7,32.4,17,31.6,17z"/>
		<path class="st1" d="M25.1,18.9c-3.4,0-6.1,2.7-6.1,6.1c0,3.4,2.7,6.1,6.1,6.1c3.4,0,6.1-2.7,6.1-6.1
			C31.2,21.6,28.5,18.9,25.1,18.9z M25.1,28.9c-2.2,0-3.9-1.8-3.9-3.9s1.8-3.9,3.9-3.9c2.2,0,3.9,1.8,3.9,3.9S27.3,28.9,25.1,28.9z"
			/>
		<path class="st1" d="M30,37.4H20c-4.1,0-7.5-3.3-7.5-7.5V20c0-4.1,3.3-7.5,7.5-7.5H30c4.1,0,7.5,3.3,7.5,7.5V30
			C37.4,34.1,34.1,37.4,30,37.4z M20,14.9c-2.8,0-5.1,2.3-5.1,5.1V30c0,2.8,2.3,5.1,5.1,5.1H30c2.8,0,5.1-2.3,5.1-5.1V20
			c0-2.8-2.3-5.1-5.1-5.1H20z"/>
	</g>
</g>
</svg>
