<?xml version="1.0" encoding="utf-8"?>
<!-- Generator: Adobe Illustrator 24.0.2, SVG Export Plug-In . SVG Version: 6.00 Build 0)  -->
<svg version="1.1" id="Capa_1" xmlns="http://www.w3.org/2000/svg" xmlns:xlink="http://www.w3.org/1999/xlink" x="0px" y="0px"
	 viewBox="0 0 50 50" style="enable-background:new 0 0 50 50;" xml:space="preserve">
<style type="text/css">
	.st0{fill:#5B42F3;}
	.st1{fill:#2E3192;}
	.st2{fill:#FFFFFF;}
</style>
<g>
	<g>
		<g>
			<g>
				<g>
					<g>
						<path class="st0" d="M42,8c-4.3-4.3-10.3-7-17-7C11.7,1,1,11.7,1,25c0,6.6,2.7,12.6,7,17c4.3,4.3,10.3,7,17,7
							c13.3,0,24-10.7,24-24C49,18.4,46.3,12.4,42,8z"/>
						<path class="st1" d="M49,25c0,13.3-10.7,24-24,24c-6.6,0-12.6-2.7-17-7L42,8C46.3,12.4,49,18.4,49,25z"/>
					</g>
				</g>
			</g>
		</g>
	</g>
	<g>
		<path class="st2" d="M9,17.6c0.2,0.1,0.3,0.2,0.4,0.2c4.9,3.4,9.8,6.8,14.7,10.2c0.8,0.5,1.1,0.5,1.8,0c4.9-3.4,9.8-6.8,14.7-10.2
			c0.1-0.1,0.2-0.1,0.4-0.2c0,0.1,0,0.2,0,0.3c0,5,0,9.9,0,14.9c0,2.1-1.5,3.5-3.5,3.5c-8.3,0-16.6,0-24.9,0c-2.1,0-3.5-1.5-3.5-3.5
			c0-5,0-10,0-15C9,17.8,9,17.8,9,17.6z"/>
		<path class="st2" d="M40.5,15.2c-1.1,0.7-2.1,1.4-3.1,2.2c-4,2.8-8,5.6-12.1,8.3c-0.2,0.1-0.4,0.2-0.6,0c-5-3.4-9.9-6.9-14.9-10.3
			c-0.1-0.1-0.2-0.1-0.3-0.2c0.5-0.8,1.3-1.3,2.2-1.5c0.3-0.1,0.5-0.1,0.8-0.1c8.3,0,16.6,0,24.9,0C38.7,13.6,39.7,14.1,40.5,15.2z"
			/>
	</g>
</g>
</svg>
