<?xml version="1.0" encoding="utf-8"?>
<!-- Generator: Adobe Illustrator 24.0.2, SVG Export Plug-In . SVG Version: 6.00 Build 0)  -->
<svg version="1.1" id="Capa_1" xmlns="http://www.w3.org/2000/svg" xmlns:xlink="http://www.w3.org/1999/xlink" x="0px" y="0px"
	 viewBox="0 0 50 50" style="enable-background:new 0 0 50 50;" xml:space="preserve">
<style type="text/css">
	.st0{fill:#5B42F3;}
	.st1{fill:#2E3192;}
	.st2{fill:#FFFFFF;}
</style>
<g>
	<g>
		<g>
			<g>
				<g>
					<path class="st0" d="M42,8c-4.3-4.3-10.3-7-17-7C11.7,1,1,11.7,1,25c0,6.6,2.7,12.6,7,17c4.3,4.3,10.3,7,17,7
						c13.3,0,24-10.7,24-24C49,18.4,46.3,12.4,42,8z"/>
					<path class="st1" d="M49,25c0,13.3-10.7,24-24,24c-6.6,0-12.6-2.7-17-7L42,8C46.3,12.4,49,18.4,49,25z"/>
				</g>
			</g>
		</g>
	</g>
	<g>
		<path class="st2" d="M24.7,42.1c-0.4-0.3-0.8-0.6-1.1-1c-2.9-3-5.5-6.3-7.7-9.8c-1.3-2.2-2.5-4.4-3.2-6.9
			c-1.2-4.4-0.4-8.3,2.4-11.9C17.2,9.9,20,8.4,23.3,8c4.2-0.5,7.8,0.7,10.8,3.6c2.1,2,3.2,4.5,3.7,7.3c0.4,2.5-0.1,4.8-1,7.1
			c-0.9,2.4-2.2,4.7-3.7,6.8c-2.1,3.1-4.4,6-7,8.7c-0.2,0.2-0.5,0.4-0.8,0.6C25.1,42.1,24.9,42.1,24.7,42.1z M31.4,20.7
			c0-3.5-2.9-6.4-6.4-6.4c-3.5,0-6.4,2.9-6.4,6.4c0,3.5,2.9,6.4,6.4,6.4C28.5,27.1,31.4,24.2,31.4,20.7z"/>
	</g>
</g>
</svg>
