<?xml version="1.0" encoding="utf-8"?>
<!-- Generator: Adobe Illustrator 24.0.2, SVG Export Plug-In . SVG Version: 6.00 Build 0)  -->
<svg version="1.1" id="Capa_1" xmlns="http://www.w3.org/2000/svg" xmlns:xlink="http://www.w3.org/1999/xlink" x="0px" y="0px"
	 viewBox="0 0 50 50" style="enable-background:new 0 0 50 50;" xml:space="preserve">
<style type="text/css">
	.st0{fill:#5B42F3;}
	.st1{fill:#2E3192;}
	.st2{fill:#FFFFFF;}
</style>
<g>
	<g>
		<path class="st0" d="M42,8c-4.3-4.3-10.3-7-17-7C11.7,1,1,11.7,1,25c0,6.6,2.7,12.6,7,17c4.3,4.3,10.3,7,17,7
			c13.3,0,24-10.7,24-24C49,18.4,46.3,12.4,42,8z"/>
		<path class="st1" d="M49,25c0,13.3-10.7,24-24,24c-6.6,0-12.6-2.7-17-7L42,8C46.3,12.4,49,18.4,49,25z"/>
	</g>
	<polygon class="st2" points="40.1,17.4 20.8,36.7 9.9,25.8 14,21.7 20.8,28.5 36,13.3 	"/>
</g>
</svg>
