<?xml version="1.0" encoding="utf-8"?>
<!-- Generator: Adobe Illustrator 24.0.2, SVG Export Plug-In . SVG Version: 6.00 Build 0)  -->
<svg version="1.1" id="Capa_1" xmlns="http://www.w3.org/2000/svg" xmlns:xlink="http://www.w3.org/1999/xlink" x="0px" y="0px"
	 viewBox="0 0 50 50" style="enable-background:new 0 0 50 50;" xml:space="preserve">
<style type="text/css">
	.st0{fill-rule:evenodd;clip-rule:evenodd;fill:url(#SVGID_1_);}
	.st1{fill-rule:evenodd;clip-rule:evenodd;fill:#FFFFFF;}
</style>
<g>
	<linearGradient id="SVGID_1_" gradientUnits="userSpaceOnUse" x1="25.557" y1="3.9251" x2="25.557" y2="45.1915">
		<stop  offset="0" style="stop-color:#00C13E"/>
		<stop  offset="1" style="stop-color:#008530"/>
	</linearGradient>
	<path class="st0" d="M25.6,3.9c-11.5,0-20.8,9.3-20.8,20.6c0,4.5,1.5,8.7,4,12.1l-2.6,7.7l8-2.5c3.3,2.2,7.2,3.4,11.4,3.4
		c11.5,0,20.8-9.3,20.8-20.6C46.4,13.2,37,3.9,25.6,3.9L25.6,3.9z"/>
	<g>
		<path class="st1" d="M49,24.4c0,12.9-10.5,23.4-23.6,23.4c-4.1,0-8-1.1-11.4-2.9L1,49l4.3-12.5c-2.1-3.5-3.4-7.7-3.4-12.1
			C1.9,11.5,12.4,1,25.4,1C38.5,1,49,11.5,49,24.4L49,24.4z M25.4,4.7c-10.9,0-19.8,8.8-19.8,19.7c0,4.3,1.4,8.3,3.8,11.5l-2.5,7.3
			l7.6-2.4c3.1,2.1,6.9,3.2,10.9,3.2c10.9,0,19.8-8.8,19.8-19.7C45.2,13.5,36.4,4.7,25.4,4.7L25.4,4.7z M37.3,29.8
			c-0.1-0.2-0.5-0.4-1.1-0.7c-0.6-0.3-3.4-1.7-3.9-1.9c-0.5-0.2-0.9-0.3-1.3,0.3c-0.4,0.6-1.5,1.9-1.8,2.2c-0.3,0.4-0.7,0.4-1.3,0.1
			c-0.6-0.3-2.4-0.9-4.6-2.8c-1.7-1.5-2.9-3.4-3.2-4c-0.3-0.6,0-0.9,0.3-1.2c0.3-0.3,0.6-0.7,0.9-1c0.3-0.3,0.4-0.6,0.6-1
			c0.2-0.4,0.1-0.7,0-1c-0.1-0.3-1.3-3.1-1.8-4.3c-0.5-1.1-1-1.1-1.3-1.1c-0.3,0-1,0.1-1,0.1s-1.2,0.1-1.7,0.7c-0.5,0.6-2,2-2,4.8
			c0,2.8,2.1,5.5,2.4,5.9c0.3,0.4,4,6.4,9.9,8.7c5.9,2.3,5.9,1.5,6.9,1.4c1.1-0.1,3.4-1.4,3.9-2.7C37.5,31.2,37.5,30,37.3,29.8
			L37.3,29.8z M37.3,29.8"/>
	</g>
</g>
</svg>
