<?xml version="1.0" encoding="utf-8"?>
<!-- Generator: Adobe Illustrator 24.0.2, SVG Export Plug-In . SVG Version: 6.00 Build 0)  -->
<svg version="1.1" id="Capa_1" xmlns="http://www.w3.org/2000/svg" xmlns:xlink="http://www.w3.org/1999/xlink" x="0px" y="0px"
	 viewBox="0 0 50 50" style="enable-background:new 0 0 50 50;" xml:space="preserve">
<style type="text/css">
	.st0{fill:#5B42F3;}
	.st1{fill:#2E3192;}
	.st2{fill:#FFFFFF;}
</style>
<g>
	<g>
		<g>
			<g>
				<path class="st0" d="M42,8c-4.3-4.3-10.3-7-17-7C11.7,1,1,11.7,1,25c0,6.6,2.7,12.6,7,17c4.3,4.3,10.3,7,17,7
					c13.3,0,24-10.7,24-24C49,18.4,46.3,12.4,42,8z"/>
				<path class="st1" d="M49,25c0,13.3-10.7,24-24,24c-6.6,0-12.6-2.7-17-7L42,8C46.3,12.4,49,18.4,49,25z"/>
			</g>
		</g>
	</g>
	<g>
		<path class="st2" d="M46,18c-0.2,0.5-0.6,0.8-1.2,1c-6.3,2.2-12.7,4.5-19,6.8c-0.5,0.2-1,0.2-1.5,0c-6.4-2.3-12.8-4.6-19.3-6.9
			c-0.8-0.3-1.2-1-0.9-1.7c0.2-0.4,0.5-0.6,0.9-0.8c4.8-1.7,9.7-3.4,14.5-5.1c1.6-0.6,3.2-1.1,4.8-1.7c0.4-0.1,0.8-0.2,1.2,0
			c6.5,2.3,12.9,4.6,19.4,6.8c0.5,0.2,0.8,0.5,1,0.9C46,17.6,46,17.8,46,18z"/>
		<path class="st2" d="M12.7,24.2c1.5,0.5,3,1,4.4,1.6c2.2,0.8,4.4,1.5,6.5,2.3c1,0.4,1.9,0.3,2.9,0c3.4-1.2,6.9-2.5,10.3-3.7
			c0.1,0,0.3-0.1,0.5-0.2c0,0.2,0,0.3,0,0.4c0,1.6,0,3.1,0,4.7c0,0.8-0.3,1.5-0.9,2c-0.9,0.8-2.1,1.3-3.2,1.6
			c-3.1,1-6.3,1.3-9.5,1.2c-2.8-0.1-5.6-0.5-8.2-1.7c-0.7-0.3-1.3-0.7-1.9-1.1c-0.6-0.5-0.9-1.1-0.9-2c0-1.6,0-3.1,0-4.7
			C12.7,24.6,12.7,24.4,12.7,24.2z"/>
		<path class="st2" d="M43,22.2c0,0.2,0,0.3,0,0.5c0,3.3,0,6.5,0,9.8c0,0.3,0.1,0.5,0.3,0.7c1.3,1,1.2,2.9-0.1,3.9
			c-0.2,0.2-0.3,0.3-0.3,0.5c0,1.9,0,3.7,0,5.6c0,0.5-0.2,0.9-0.7,1.1c-0.4,0.2-0.8,0.2-1.2-0.1c-0.4-0.3-0.6-0.6-0.6-1.1
			c0-1.8,0-3.7,0-5.5c0-0.3-0.1-0.4-0.3-0.6c-1.3-1-1.3-2.9,0-3.9c0.2-0.2,0.3-0.4,0.3-0.6c0-3,0-6,0-9c0-0.3,0.1-0.4,0.4-0.5
			C41.6,22.7,42.3,22.5,43,22.2z"/>
	</g>
</g>
</svg>
