<?xml version="1.0" encoding="utf-8"?>
<!-- Generator: Adobe Illustrator 24.0.2, SVG Export Plug-In . SVG Version: 6.00 Build 0)  -->
<svg version="1.1" id="Capa_1" xmlns="http://www.w3.org/2000/svg" xmlns:xlink="http://www.w3.org/1999/xlink" x="0px" y="0px"
	 viewBox="0 0 50 50" style="enable-background:new 0 0 50 50;" xml:space="preserve">
<style type="text/css">
	.st0{fill:url(#SVGID_1_);}
	.st1{fill:url(#SVGID_2_);}
</style>
<g>
	<linearGradient id="SVGID_1_" gradientUnits="userSpaceOnUse" x1="10.2899" y1="20.1785" x2="110.709" y2="53.0928">
		<stop  offset="0.1173" style="stop-color:#FFFFFF"/>
		<stop  offset="0.3251" style="stop-color:#D3D3D3"/>
		<stop  offset="0.5481" style="stop-color:#AAAAAA"/>
		<stop  offset="0.7244" style="stop-color:#919191"/>
		<stop  offset="0.8307" style="stop-color:#878787"/>
	</linearGradient>
	<circle class="st0" cx="25" cy="25" r="24"/>
	<g>
		<radialGradient id="SVGID_2_" cx="-1.7959" cy="1.5811" r="63.4434" gradientUnits="userSpaceOnUse">
			<stop  offset="5.586592e-03" style="stop-color:#ABABAB"/>
			<stop  offset="0.1499" style="stop-color:#888888"/>
			<stop  offset="0.4776" style="stop-color:#3F3F3F"/>
			<stop  offset="0.7129" style="stop-color:#121212"/>
			<stop  offset="0.8307" style="stop-color:#000000"/>
		</radialGradient>
		<path class="st1" d="M47.2,24.9c0-12.3-9.9-22.2-22.2-22.2S2.8,12.6,2.8,24.9c0,9.7,6.3,18,15,21c0.5-0.4,1.1-0.9,1.1-1.7
			c0-1.2,0-4.4,0-4.4s-1,0.2-2.3,0.2c-3.5,0-4.6-2.2-5.1-3.4c-0.7-1.6-1.6-2.4-2.5-3c-0.6-0.4-0.7-0.8,0-0.9
			c3.1-0.6,3.8,3.5,5.9,4.1c1.5,0.5,3.3,0.3,4.3-0.3c0.1-1.2,1-2.3,1.8-2.9c-5.2-0.5-8.3-2.3-9.9-5.2l-0.2-0.3l-0.4-0.9l-0.1-0.3
			c-0.5-1.5-0.7-3.1-0.7-5c0-3.3,1-4.6,2.4-6.4c-1.1-3.8,0.4-6.4,0.4-6.4s2.3-0.5,6.5,2.6c2.3-1,8.5-1.1,11.4-0.2
			c1.8-1.2,5.1-2.8,6.4-2.4c0.4,0.6,1.1,2.2,0.5,5.9c0.4,0.8,2.8,2.5,2.8,7.4c0,1.8-0.2,3.3-0.6,4.6l-0.2,0.7c0,0-0.1,0.3-0.2,0.6
			l-0.1,0.3c-1.5,3.4-4.7,4.6-9.8,5.2c1.7,1,2.1,2.3,2.1,5.9s0,4,0,4.8c0,0.7,0.6,1.2,1.1,1.6C40.9,42.9,47.2,34.6,47.2,24.9z"/>
	</g>
</g>
</svg>
