<?xml version="1.0" encoding="utf-8"?>
<!-- Generator: Adobe Illustrator 24.0.2, SVG Export Plug-In . SVG Version: 6.00 Build 0)  -->
<svg version="1.1" id="Capa_1" xmlns="http://www.w3.org/2000/svg" xmlns:xlink="http://www.w3.org/1999/xlink" x="0px" y="0px"
	 viewBox="0 0 50 50" style="enable-background:new 0 0 50 50;" xml:space="preserve">
<style type="text/css">
	.st0{fill:url(#SVGID_1_);}
	.st1{fill:#FFFFFF;}
</style>
<g>
	<g>
		<linearGradient id="SVGID_1_" gradientUnits="userSpaceOnUse" x1="8.1486" y1="8.1486" x2="41.8514" y2="41.8514">
			<stop  offset="0" style="stop-color:#007BB8"/>
			<stop  offset="1" style="stop-color:#0044E9"/>
		</linearGradient>
		<circle class="st0" cx="25" cy="25" r="23.8"/>
		<g>
			<path class="st1" d="M15.5,19.4h4.1v13.2h-4.1V19.4z M17.5,12.9c1.3,0,2.4,1.1,2.4,2.4c0,1.3-1.1,2.4-2.4,2.4
				c-1.3,0-2.4-1.1-2.4-2.4C15.1,13.9,16.2,12.9,17.5,12.9"/>
			<path class="st1" d="M22.1,19.4H26v1.8h0.1c0.5-1,1.9-2.1,3.9-2.1c4.1,0,4.9,2.7,4.9,6.3v7.2h-4.1v-6.4c0-1.5,0-3.5-2.1-3.5
				c-2.1,0-2.5,1.7-2.5,3.4v6.5h-4.1V19.4z"/>
		</g>
	</g>
</g>
</svg>
